<?xml version="1.0" encoding="UTF-8" standalone="no"?><!DOCTYPE svg PUBLIC "-//W3C//DTD SVG 1.1//EN" "http://www.w3.org/Graphics/SVG/1.1/DTD/svg11.dtd"><svg width="100%" height="100%" viewBox="0 0 1258 806" version="1.1" xmlns="http://www.w3.org/2000/svg" xmlns:xlink="http://www.w3.org/1999/xlink" xml:space="preserve" xmlns:serif="http://www.serif.com/" style="fill-rule:evenodd;clip-rule:evenodd;stroke-linejoin:round;stroke-miterlimit:1.41421;"><rect x="1.54" y="0" width="1259.69" height="809.22" style="fill:#00b5d1;"/><path d="M485.19,429.41c2.803,0.001 5.108,2.307 5.108,5.11c0,0.234 -0.016,0.468 -0.048,0.7l-2.73,19.67c-0.29,2.55 0.4,3.82 2.16,3.82c2.06,0 3.23,-1.27 3.53,-3.82l16,-114.38c0.356,-2.509 2.525,-4.395 5.06,-4.4l29.08,0c0,0 0.001,0 0.001,0c2.798,0 5.1,2.302 5.1,5.1c0,0.241 -0.017,0.482 -0.051,0.72l-15.89,113.07c-1.77,13 -6.67,22.44 -14.8,28c-8.13,5.56 -18.92,8.43 -32.54,8.43c-13.62,0 -23.52,-2.85 -29.89,-8.43c-6.37,-5.58 -8.72,-15 -7,-28l2.84,-21.15c0.335,-2.525 2.513,-4.432 5.06,-4.43l29.01,-0.01Z" style="fill:#ef4a41;fill-rule:nonzero;"/><path d="M563.11,356l50.36,0c2.462,0.002 4.486,2.028 4.486,4.49c0,0.08 -0.002,0.16 -0.006,0.24l-6.83,126.09c-0.127,2.368 -2.109,4.248 -4.48,4.25l-23.78,0c-2.46,-0.004 -4.483,-2.03 -4.483,-4.49c0,-0.113 0.004,-0.227 0.013,-0.34l1,-12.63c0.003,-0.043 0.005,-0.087 0.005,-0.13c0,-0.971 -0.799,-1.77 -1.77,-1.77c-0.002,0 -0.003,0 -0.005,0l-10.62,0c-0.836,-0.002 -1.564,0.591 -1.73,1.41l-2.94,14.36c-0.422,2.081 -2.267,3.59 -4.39,3.59l-23.67,0c-2.46,-0.004 -4.483,-2.03 -4.483,-4.49c0,-0.337 0.038,-0.672 0.113,-1l28.84,-126.09c0.461,-2.034 2.284,-3.49 4.37,-3.49Zm10.46,86.8l6.61,0c0.915,0.003 1.687,-0.708 1.76,-1.62l4.11,-52.18c0.004,-0.047 0.006,-0.093 0.006,-0.14c0,-0.966 -0.795,-1.76 -1.76,-1.76c-0.002,0 -0.004,0 -0.006,0c-0.835,0.001 -1.56,0.593 -1.73,1.41l-10.72,52.12c-0.025,0.118 -0.037,0.239 -0.037,0.36c0,0.966 0.794,1.76 1.76,1.76c0.002,0 0.005,0 0.007,0l0,0.05Z" style="fill:#ef4a41;fill-rule:nonzero;"/><path d="M789.55,384.69l-10.95,0c-2.222,-0.002 -4.127,1.65 -4.44,3.85l-2.16,15.12c-0.03,0.209 -0.045,0.419 -0.045,0.63c0,2.458 2.023,4.48 4.48,4.48c0.002,0 0.003,0 0.005,0l7.88,0c2.462,0.002 4.486,2.028 4.486,4.49c0,0.214 -0.015,0.428 -0.046,0.64l-2.83,19.51c-0.321,2.191 -2.216,3.834 -4.43,3.84l-10.29,0c-2.227,-0.006 -4.136,1.654 -4.44,3.86l-2.26,16c-0.028,0.202 -0.042,0.406 -0.042,0.61c0,2.458 2.023,4.48 4.48,4.48c0.017,0 0.035,0 0.052,0l8.33,0c0.002,0 0.004,0 0.006,0c2.458,0 4.48,2.022 4.48,4.48c0,0.214 -0.015,0.428 -0.046,0.64l-2.85,19.85c-0.308,2.202 -2.216,3.857 -4.44,3.85l-44.16,0c-2.461,-0.003 -4.484,-2.029 -4.484,-4.49c0,-0.211 0.014,-0.421 0.044,-0.63l17.83,-126.09c0.312,-2.202 2.216,-3.857 4.44,-3.86l44.13,0c2.46,0.005 4.482,2.03 4.482,4.49c0,0.204 -0.014,0.408 -0.042,0.61l-2.72,19.76c-0.308,2.212 -2.217,3.876 -4.45,3.88Z" style="fill:#ef4a41;fill-rule:nonzero;"/><path d="M846.88,356c11.53,0 18.93,2.24 22.11,6.8c3.18,4.56 3.87,12.9 2.24,25l-5.25,37c-1.33,9.24 -5.08,16.22 -11.16,21.11c-0.386,0.305 -0.584,0.792 -0.52,1.28l5,38.8c0.024,0.189 0.036,0.379 0.036,0.57c0,2.462 -2.024,4.488 -4.486,4.49l-21.85,0c-2.276,-0.006 -4.207,-1.738 -4.46,-4l-3.31,-31.28c-0.071,-0.716 -0.68,-1.268 -1.4,-1.27c-0.702,0.003 -1.301,0.525 -1.4,1.22l-4.43,31.44c-0.316,2.2 -2.217,3.853 -4.44,3.86l-25.43,0c-2.461,-0.003 -4.484,-2.029 -4.484,-4.49c0,-0.211 0.014,-0.421 0.044,-0.63l17.83,-126.09c0.333,-2.2 2.256,-3.835 4.48,-3.81l40.88,0Zm-14.54,29.86l-5.79,40.8c-0.009,0.066 -0.014,0.133 -0.014,0.2c0,0.774 0.636,1.41 1.41,1.41c0.001,0 0.003,0 0.004,0l1.48,0c0.163,-0.001 0.325,-0.028 0.48,-0.08c1.43,-0.552 2.392,-1.918 2.43,-3.45l5.17,-36.48c0.34,-2.75 -0.26,-3.61 -3,-3.61l-0.75,0c-0.69,-0.012 -1.294,0.481 -1.42,1.16l0,0.05Z" style="fill:#ef4a41;fill-rule:nonzero;"/><path d="M656.27,462.2l12.59,0c0.002,0 0.004,0 0.006,0c2.458,0 4.48,2.022 4.48,4.48c0,0.214 -0.015,0.428 -0.046,0.64l-2.85,19.85c-0.322,2.196 -2.23,3.839 -4.45,3.83l-46.34,0c-2.461,-0.003 -4.484,-2.029 -4.484,-4.49c0,-0.211 0.014,-0.421 0.044,-0.63l16.89,-126.09c0.308,-2.204 2.214,-3.862 4.44,-3.86l21.45,0c2.46,0.004 4.483,2.029 4.483,4.49c0,0.207 -0.014,0.415 -0.043,0.62l-10.57,96c-0.039,0.238 -0.059,0.479 -0.059,0.72c0,2.436 2.005,4.44 4.44,4.44c0.006,0 0.013,0 0.019,0Z" style="fill:#ef4a41;fill-rule:nonzero;"/><path d="M708.21,469.25l12.59,0c2.456,0.002 4.476,2.024 4.476,4.48c0,0.214 -0.015,0.428 -0.046,0.64l-2.84,19.85c-0.317,2.198 -2.219,3.848 -4.44,3.85l-46.35,0c-0.002,0 -0.003,0 -0.005,0c-2.457,0 -4.48,-2.022 -4.48,-4.48c0,-0.211 0.015,-0.421 0.045,-0.63l16.84,-126.09c0.316,-2.2 2.217,-3.853 4.44,-3.86l21.56,0c2.46,0.004 4.483,2.029 4.483,4.49c0,0.207 -0.014,0.415 -0.043,0.62l-10.57,96c-0.036,0.228 -0.054,0.459 -0.054,0.69c0,2.419 1.976,4.415 4.394,4.44Z" style="fill:#ef4a41;fill-rule:nonzero;"/><path d="M630.27,510l-8.85,16.47l-7.91,0.4c-0.843,-0.103 -1.681,0.247 -2.2,0.92c-0.09,0.135 -0.168,0.28 -0.23,0.43c-0.141,0.376 -0.225,0.77 -0.25,1.17l4.58,-0.16l4.61,-0.15l-0.21,0.4l-0.74,1.38l-7.91,0.4c-0.846,-0.105 -1.688,0.246 -2.21,0.92c-0.09,0.135 -0.168,0.28 -0.23,0.43c-0.137,0.376 -0.218,0.77 -0.24,1.17l4.57,-0.16l4.62,-0.15l-1,1.78l-7.91,0.4c-0.846,-0.103 -1.687,0.247 -2.21,0.92c-0.087,0.136 -0.161,0.28 -0.22,0.43c-0.141,0.376 -0.225,0.77 -0.25,1.17l4.57,-0.16l4.62,-0.15l-1.06,2c-0.315,0.592 -0.163,1.331 0.36,1.75c0.064,0.07 0.138,0.131 0.22,0.18c0.057,0.029 0.117,0.049 0.18,0.06c0.658,0.261 1.416,-0.016 1.75,-0.64l1.07,-2c0.62,1 1.21,2 1.81,3l3,4.88c0.319,-0.239 0.599,-0.526 0.83,-0.85c0.097,-0.133 0.178,-0.277 0.24,-0.43c0.269,-0.804 0.098,-1.693 -0.45,-2.34l-4,-6.82l1,-1.78l1.81,2.95l3,4.88c0.319,-0.239 0.599,-0.526 0.83,-0.85c0.098,-0.131 0.175,-0.276 0.23,-0.43c0.273,-0.804 0.101,-1.695 -0.45,-2.34l-4,-6.82l0.74,-1.37l0.21,-0.41l1.82,2.95l3,4.88c0.321,-0.24 0.604,-0.526 0.84,-0.85c0.088,-0.133 0.165,-0.274 0.23,-0.42c0.268,-0.807 0.098,-1.699 -0.45,-2.35l-4,-6.82l8.85,-16.47c0.367,-0.689 0.106,-1.558 -0.58,-1.93c-0.23,-0.147 -0.497,-0.225 -0.77,-0.225c-0.526,0 -1.011,0.291 -1.26,0.755Z" style="fill:#f8f2e1;fill-rule:nonzero;"/><path d="M722.88,326.11l6.29,-0.23l-0.06,0.11l-5.72,10.64l-7.12,13.26c-0.367,0.694 -0.101,1.567 0.59,1.94c0.691,0.366 1.561,0.1 1.93,-0.59l7.12,-13.24l5.72,-10.64l0.06,-0.11l3.11,5.08c0.05,0.1 0.11,0.19 0.17,0.29c0.69,-6.23 1.33,-12 2,-18.07l-0.07,0l-0.08,0l-13.94,11.56Z" style="fill:#f8f2e1;fill-rule:nonzero;"/><path d="M435.37,333.52c1.81,0 3.61,-0.1 5.42,-0.19c0.703,0.091 1.411,0.134 2.12,0.13c0.705,-0.001 1.409,0.036 2.11,0.11c0.049,-0.016 0.101,-0.016 0.15,0c0.049,0.016 0.12,0 0.25,0c0.811,-0.058 1.625,0 2.42,0.17c0.799,0.162 1.607,0.276 2.42,0.34l1.11,0.19c1.07,0.23 2.16,0.47 3.23,0.72l3,0.7c2.052,0.641 4.033,1.492 5.91,2.54c0.661,0.37 1.295,0.784 1.9,1.24c0.606,0.482 1.178,1.007 1.71,1.57c1.59,1.567 2.765,3.506 3.42,5.64c0.09,0.43 0.17,0.85 0.25,1.28c-0.054,0.341 -0.001,0.69 0.15,1c0.141,0.316 0.222,0.655 0.24,1c0.013,0.334 -0.007,0.669 -0.06,1c-0.06,0.32 -0.11,0.62 -0.17,0.9c0.068,0.33 0.068,0.67 0,1c-0.105,0.847 -0.306,1.679 -0.6,2.48c-0.3,0.83 -0.63,1.65 -1,2.45c-0.605,1.311 -1.307,2.574 -2.1,3.78c-0.78,1.2 -1.59,2.37 -2.41,3.5l-1.19,1.43c-0.397,0.483 -0.832,0.935 -1.3,1.35c-0.77,0.77 -1.51,1.49 -2.21,2.15c-0.7,0.66 -1.42,1.34 -2.13,2l-0.58,0.48c-0.9,0.77 -1.84,1.54 -2.81,2.31c-0.987,0.783 -2.034,1.488 -3.13,2.11c-0.71,0.53 -1.39,1 -2.05,1.47c-0.66,0.47 -1.33,0.9 -2,1.35l-2.36,1.34c-1.11,0.6 -2.21,1.16 -3.29,1.7c-1.08,0.54 -2.23,1.06 -3.41,1.54c-0.649,0.344 -1.316,0.651 -2,0.92l-2,0.8c-0.6,0.26 -1.21,0.52 -1.84,0.77c-0.63,0.25 -1.21,0.48 -1.74,0.66c-0.53,0.18 -0.91,0.22 -1.35,0.3c-0.44,0.08 -0.84,0.18 -1.25,0.3c-1.56,0.542 -3.167,0.94 -4.8,1.19c-1.07,0.19 -2.09,0.38 -3.06,0.58c-1.013,0.206 -2.039,0.346 -3.07,0.42l-1.36,0.12c-0.235,0.002 -0.462,0.079 -0.65,0.22c-0.159,0.162 -0.242,0.384 -0.23,0.61c-0.057,0.407 -0.161,0.807 -0.31,1.19c-0.122,0.294 -0.164,0.615 -0.12,0.93c0.054,0.279 0.011,0.568 -0.12,0.82c-0.167,0.718 -0.064,1.473 0.29,2.12c0.373,0.721 0.707,1.462 1,2.22c0.16,0.48 0,0.62 -0.49,0.43c-0.09,-0.018 -0.178,-0.048 -0.26,-0.09c-0.111,-0.051 -0.229,-0.085 -0.35,-0.1c-0.405,-0.162 -0.766,-0.419 -1.05,-0.75c-0.364,-0.44 -0.809,-0.806 -1.31,-1.08c-0.484,-0.262 -0.899,-0.636 -1.21,-1.09l-0.22,-0.43c-0.066,-0.131 -0.107,-0.274 -0.12,-0.42c0.114,-0.573 0.177,-1.156 0.19,-1.74c0.009,-0.587 0.07,-1.173 0.18,-1.75c-0.004,-0.074 -0.024,-0.146 -0.06,-0.21c-0.035,-0.096 -0.056,-0.198 -0.06,-0.3c0,-0.007 0.001,-0.013 0.001,-0.02c0,-0.178 -0.144,-0.325 -0.321,-0.33c-0.124,-0.022 -0.245,-0.059 -0.36,-0.11c-0.111,-0.051 -0.239,-0.051 -0.35,0c-0.41,0 -0.78,0 -1.12,-0.05c-0.336,-0.028 -0.67,-0.074 -1,-0.14c-0.168,-0.041 -0.342,-0.041 -0.51,0c-1.241,-0.037 -2.475,-0.208 -3.68,-0.51c-1.31,-0.31 -2.64,-0.64 -4,-1c-2.003,-0.49 -3.903,-1.333 -5.61,-2.49c-0.36,-0.23 -0.7,-0.48 -1.05,-0.75c-0.35,-0.27 -0.71,-0.55 -1.06,-0.86c-0.107,-0.072 -0.198,-0.163 -0.27,-0.27c-0.08,-0.134 -0.17,-0.261 -0.27,-0.38c-0.789,-0.907 -1.354,-1.986 -1.65,-3.15c-0.063,-0.418 0.07,-0.842 0.36,-1.15c0.35,0.17 0.58,0.2 0.72,0.08c0.122,-0.116 0.253,-0.222 0.39,-0.32c0.07,0 0.17,0 0.31,0.1c0.17,0.383 0.274,0.792 0.31,1.21c0.04,0.43 0.106,0.858 0.2,1.28c0,0.33 0.34,0.76 1,1.27c0.539,0.506 1.18,0.891 1.88,1.13c1.226,0.609 2.513,1.085 3.84,1.42c1.3,0.333 2.6,0.613 3.9,0.84c0.076,0.013 0.148,0.044 0.21,0.09c0.095,0.042 0.205,0.042 0.3,0c0.635,0.004 1.268,0.071 1.89,0.2c0.59,0.128 1.188,0.215 1.79,0.26l4.57,0c0.365,-0.044 0.694,-0.245 0.9,-0.55c0.326,-0.657 0.568,-1.352 0.72,-2.07c0.18,-0.77 0.32,-1.51 0.43,-2.22c0.12,-0.41 0.23,-0.82 0.35,-1.23c0.133,-0.186 0.244,-0.388 0.33,-0.6c0.107,-0.263 0.148,-0.548 0.12,-0.83c0.037,-0.166 0.101,-0.325 0.19,-0.47c0.126,-0.258 0.233,-0.526 0.32,-0.8c0.09,-0.28 0.19,-0.58 0.32,-0.9c0.18,-0.599 0.258,-1.225 0.23,-1.85c0.224,-0.241 0.401,-0.523 0.52,-0.83c0.09,-0.25 0.2,-0.54 0.33,-0.85c0.115,-0.295 0.202,-0.599 0.26,-0.91c0.065,-0.313 0.155,-0.621 0.27,-0.92c0.13,-0.342 0.233,-0.693 0.31,-1.05c0.079,-0.361 0.186,-0.716 0.32,-1.06c0.17,-0.142 0.272,-0.349 0.28,-0.57c-0.089,-0.291 -0.067,-0.604 0.06,-0.88c0.14,-0.279 0.264,-0.566 0.37,-0.86c0.23,-0.413 0.35,-0.878 0.35,-1.35c-0.016,-0.282 0.007,-0.565 0.07,-0.84c0.06,-0.23 0.12,-0.47 0.17,-0.73c-0.006,-0.34 0.119,-0.67 0.35,-0.92c0.131,-0.128 0.212,-0.298 0.23,-0.48c0.029,-0.196 0.072,-0.39 0.13,-0.58c0.12,-0.39 0.24,-0.74 0.36,-1.06c0.127,-0.345 0.182,-0.713 0.16,-1.08c-0.21,-0.22 -0.21,-0.32 0,-0.3c0.249,-0.299 0.394,-0.671 0.41,-1.06c0.017,-0.376 0.123,-0.743 0.31,-1.07c0.121,-0.209 0.15,-0.459 0.08,-0.69c-0.075,-0.233 -0.05,-0.487 0.07,-0.7c0.166,-0.133 0.285,-0.315 0.34,-0.52c0.016,-0.18 0.016,-0.36 0,-0.54c-0.024,-0.335 -0.001,-0.672 0.07,-1c0.241,-0.292 0.415,-0.634 0.51,-1c0.09,-0.36 0.16,-0.71 0.21,-1c-0.02,-0.514 0.027,-1.028 0.14,-1.53c0.13,-0.521 0.315,-1.027 0.55,-1.51c0.002,-0.073 0.035,-0.142 0.09,-0.19c0.07,-0.07 0.07,-0.13 0,-0.21c-0.218,-0.398 -0.258,-0.871 -0.11,-1.3c0.159,-0.309 0.235,-0.653 0.22,-1c-0.091,-0.411 -0.074,-0.838 0.05,-1.24c0.119,-0.372 0.206,-0.753 0.26,-1.14c0.12,-0.321 0.19,-0.658 0.21,-1c0.006,-0.352 0.154,-0.688 0.41,-0.93c0.065,-0.155 0.096,-0.322 0.09,-0.49c-0.02,-0.367 -0.003,-0.736 0.05,-1.1c0.056,-0.342 0.146,-0.677 0.27,-1c0.124,-0.353 0.208,-0.718 0.25,-1.09c0.06,-0.39 0.11,-0.76 0.16,-1.09c0.001,-0.014 0.002,-0.028 0.002,-0.042c0,-0.263 -0.217,-0.48 -0.48,-0.48c-0.014,0 -0.028,0.001 -0.042,0.002c-0.115,0.124 -0.299,0.156 -0.45,0.08c-0.149,-0.076 -0.331,-0.047 -0.45,0.07l-2.11,0.28c-0.67,0.1 -1.38,0.18 -2.11,0.25c-1.747,0.2 -3.507,0.48 -5.28,0.84c-1.773,0.36 -3.533,0.693 -5.28,1c-1.121,0.222 -2.23,0.506 -3.32,0.85c-1.07,0.33 -2.14,0.66 -3.21,1l-2.2,1c-0.361,0.358 -0.532,0.867 -0.46,1.37c0.14,0.17 0.13,0.29 0,0.39c-0.171,0.094 -0.371,0.119 -0.56,0.07c-0.253,-0.044 -0.497,-0.132 -0.72,-0.26l-0.53,-0.42c-0.35,-0.41 -0.73,-0.82 -1.12,-1.25c-0.373,-0.393 -0.653,-0.865 -0.82,-1.38c-0.15,-0.49 -0.17,-0.79 0,-0.89c0.35,-0.316 0.684,-0.65 1,-1c0.294,-0.353 0.663,-0.637 1.08,-0.83c1.088,-0.506 2.238,-0.865 3.42,-1.07c1.157,-0.197 2.302,-0.457 3.43,-0.78c1.41,-0.34 2.85,-0.61 4.33,-0.83c1.48,-0.22 3,-0.39 4.44,-0.56c0.147,-0.057 0.297,-0.104 0.45,-0.14c0.144,-0.051 0.298,-0.068 0.45,-0.05c0.385,0.05 0.775,0.05 1.16,0c0.37,-0.06 0.76,-0.14 1.16,-0.24l1,-0.2l1.72,-0.16c0.762,-0.138 1.537,-0.188 2.31,-0.15c0.339,0.008 0.677,-0.039 1,-0.14c0.275,-0.099 0.56,-0.166 0.85,-0.2c0.25,-0.021 0.5,-0.021 0.75,0c0.68,0 1.06,0 1.16,-0.15c0.156,-0.315 0.26,-0.652 0.31,-1c0.11,-0.66 0.18,-1.31 0.23,-1.94c0.04,-0.65 0.114,-1.297 0.22,-1.94c0.108,-0.577 0.168,-1.163 0.18,-1.75c0,-0.56 0,-1.11 0,-1.65c0.102,-0.457 0.169,-0.922 0.2,-1.39c0.008,-0.469 -0.029,-0.938 -0.11,-1.4c-0.01,-0.321 -0.057,-0.64 -0.14,-0.95c-0.08,-0.31 -0.15,-0.59 -0.24,-0.86c0.002,-0.19 -0.039,-0.378 -0.12,-0.55c-0.064,-0.146 -0.105,-0.301 -0.12,-0.46c0,-0.6 0.24,-0.89 0.77,-0.88c0.048,0.018 0.102,0.018 0.15,0c0.077,-0.041 0.164,-0.058 0.25,-0.05c0.4,0.065 0.784,0.208 1.13,0.42l1.17,1.51c0.14,0.267 0.27,0.537 0.39,0.81c0.102,0.255 0.163,0.525 0.18,0.8l0.38,4.41c0.011,0.183 0.011,0.367 0,0.55c-0.035,0.153 -0.01,0.314 0.07,0.45c-0.21,1.6 -0.41,3.2 -0.62,4.8l0,0.4l0.21,0.2c0.06,0.07 0.23,0.1 0.5,0.11l2.22,0c0.73,0 1.51,-0.05 2.31,-0.13l0.91,0l-0.15,-0.07Zm-18.67,53.32c0.34,0.11 0.61,0.19 0.82,0.24c0.27,0.056 0.549,0.038 0.81,-0.05c0.254,-0.105 0.525,-0.163 0.8,-0.17c0.309,-0.006 0.615,-0.057 0.91,-0.15c0.692,0.042 1.383,-0.103 2,-0.42c0.238,-0.234 0.568,-0.352 0.9,-0.32c0.369,0.036 0.741,0.036 1.11,0c0.34,-0.044 0.675,-0.121 1,-0.23c0.279,-0.096 0.562,-0.176 0.85,-0.24l0.75,-0.16c0.317,-0.001 0.628,-0.087 0.9,-0.25c0.4,-0.18 0.81,-0.37 1.24,-0.55c0.463,-0.187 0.952,-0.301 1.45,-0.34c0.466,-0.093 0.917,-0.252 1.34,-0.47c0.426,-0.21 0.876,-0.367 1.34,-0.47c0.344,-0.334 0.811,-0.511 1.29,-0.49c0.139,0.005 0.277,-0.026 0.4,-0.09l0.4,-0.2l0.69,-0.35c0.251,-0.111 0.525,-0.162 0.8,-0.15l1.58,-0.82c0.835,-0.297 1.603,-0.755 2.26,-1.35c0.567,-0.335 1.158,-0.626 1.77,-0.87c0.371,-0.124 0.712,-0.325 1,-0.59c0.262,-0.245 0.562,-0.444 0.89,-0.59c0.455,-0.157 0.884,-0.383 1.27,-0.67c0.406,-0.29 0.903,-0.425 1.4,-0.38c0.34,-0.365 0.712,-0.7 1.11,-1l1.22,-0.94l0.48,-0.34c0.652,-0.38 1.26,-0.833 1.81,-1.35c0.549,-0.52 1.153,-0.979 1.8,-1.37c0.155,-0.029 0.294,-0.115 0.39,-0.24l0.67,-0.67c0.72,-0.61 1.38,-1.17 2,-1.67c0.593,-0.487 1.157,-1.008 1.69,-1.56c0.33,-0.24 0.62,-0.47 0.88,-0.7c0.285,-0.276 0.539,-0.581 0.76,-0.91c0.542,-0.52 1.049,-1.075 1.52,-1.66l1.43,-1.7c0.57,-0.82 1.15,-1.63 1.76,-2.43c0.577,-0.759 1.095,-1.562 1.55,-2.4c0.102,-0.26 0.244,-0.503 0.42,-0.72c0.189,-0.235 0.363,-0.482 0.52,-0.74c0.093,-0.302 0.217,-0.593 0.37,-0.87c0.12,-0.22 0.24,-0.44 0.37,-0.66c0.17,-0.61 0.35,-1.21 0.53,-1.81c0.17,-0.954 0.263,-1.921 0.28,-2.89c0.031,-0.941 -0.039,-1.884 -0.21,-2.81c-0.089,-0.688 -0.271,-1.361 -0.54,-2c-0.283,-0.64 -0.695,-1.216 -1.21,-1.69c-0.69,-0.63 -1.39,-1.22 -2.07,-1.77c-0.734,-0.561 -1.525,-1.044 -2.36,-1.44c-0.89,-0.41 -1.8,-0.79 -2.75,-1.15c-0.93,-0.34 -1.878,-0.627 -2.84,-0.86c-0.47,-0.15 -0.95,-0.28 -1.42,-0.39c-0.497,-0.126 -1.001,-0.223 -1.51,-0.29c-1.35,-0.2 -2.69,-0.4 -4,-0.62c-0.6,-0.08 -1.14,-0.13 -1.61,-0.16l-1.51,-0.08c-0.74,-0.08 -1.44,-0.13 -2.11,-0.16c-0.67,-0.03 -1.38,0 -2.11,0c-0.27,0 -0.44,0 -0.51,-0.08c-0.393,-0.111 -0.802,-0.158 -1.21,-0.14l-1.3,0.06c-1.44,0.06 -2.88,0.1 -4.32,0.12l-1.41,0c-0.474,0.01 -0.944,0.081 -1.4,0.21c-0.907,0.056 -1.814,0.116 -2.72,0.18c-0.2,0 -0.36,0.13 -0.48,0.39c-0.119,0.181 -0.198,0.386 -0.23,0.6c-0.02,0.169 -0.064,0.334 -0.13,0.49c-0.17,1 -0.31,2 -0.43,3.14c-0.123,1.062 -0.334,2.112 -0.63,3.14c-0.064,0.207 -0.091,0.424 -0.08,0.64c0.011,0.229 -0.049,0.456 -0.17,0.65l-0.48,3.28c-0.17,0.92 -0.35,1.83 -0.55,2.72c-0.2,0.89 -0.42,1.8 -0.65,2.72c-0.23,0.92 -0.37,2 -0.63,3c-0.26,1 -0.52,2 -0.75,2.95c-0.1,0.796 -0.254,1.585 -0.46,2.36c-0.2,0.78 -0.39,1.57 -0.56,2.35c-0.302,0.764 -0.559,1.546 -0.77,2.34c-0.2,0.78 -0.43,1.53 -0.67,2.24l-1.86,6.5c-0.059,0.118 -0.09,0.248 -0.09,0.38c-0.42,1.29 -0.81,2.54 -1.16,3.76c-0.35,1.22 -0.78,2.46 -1.27,3.73c-0.06,0.25 -0.13,0.63 -0.21,1.11c-0.097,0.44 -0.147,0.889 -0.15,1.34Z" style="fill:#f8f2e1;fill-rule:nonzero;"/><path d="M500.83,369.15c-0.527,0.119 -1.073,0.119 -1.6,0c-0.556,-0.158 -1.098,-0.362 -1.62,-0.61c-0.529,-0.244 -0.989,-0.615 -1.34,-1.08c-0.922,-1.016 -1.605,-2.226 -2,-3.54c0,-0.2 -0.11,-0.28 -0.31,-0.24l-1.61,2.08c-1,1 -1.9,2 -2.82,3c-0.92,1 -1.87,2 -2.83,2.82c-0.65,0.54 -1.27,1 -1.89,1.5c-0.612,0.46 -1.285,0.834 -2,1.11c-0.765,0.428 -1.597,0.722 -2.46,0.87c-0.229,0.088 -0.472,0.133 -0.718,0.133c-0.903,0 -1.699,-0.611 -1.932,-1.483l-0.85,-1.37c-0.436,-0.801 -0.513,-1.75 -0.21,-2.61c0.112,-0.569 0.307,-1.118 0.58,-1.63c0.27,-0.498 0.5,-1.016 0.69,-1.55l1,-1.61c0.88,-1.25 1.82,-2.46 2.8,-3.64c0.96,-1.145 2.003,-2.218 3.12,-3.21l1.64,-1.35c0.848,-0.703 1.853,-1.19 2.93,-1.42c0.446,-0.158 0.944,-0.071 1.31,0.23c0.884,0.622 1.522,1.535 1.8,2.58c-0.014,0.226 -0.072,0.446 -0.17,0.65c-0.2,0.18 -0.33,0.2 -0.4,0.08l-0.71,-0.46c-0.35,-0.26 -0.65,-0.27 -0.9,0c-0.53,0.24 -1.05,0.47 -1.57,0.68c-0.574,0.24 -1.102,0.579 -1.56,1c-1.193,0.877 -2.259,1.913 -3.17,3.08c-0.271,0.203 -0.498,0.458 -0.67,0.75c-1.45,1.502 -2.627,3.245 -3.48,5.15c-0.528,0.749 -0.871,1.613 -1,2.52c-0.12,0.3 -0.05,0.42 0.22,0.37c0.196,0.03 0.394,0.03 0.59,0l0.5,-0.09c0.46,-0.224 0.935,-0.418 1.42,-0.58c0.491,-0.153 0.941,-0.413 1.32,-0.76c1.902,-1.204 3.592,-2.714 5,-4.47c0.77,-0.83 1.53,-1.67 2.29,-2.51c0.2,-0.18 0.37,-0.34 0.53,-0.47c0.161,-0.132 0.305,-0.283 0.43,-0.45c0.5,-0.71 1,-1.4 1.47,-2c0.47,-0.6 0.95,-1.4 1.45,-2.26c0.31,-0.54 0.7,-0.73 1.18,-0.56l0.9,0.26c0.297,0.069 0.556,0.253 0.72,0.51c0.08,0.25 0.13,0.46 0.18,0.62c0.044,0.221 0.044,0.449 0,0.67c-0.06,0.448 -0.094,0.898 -0.1,1.35c0,0.48 0,0.95 0,1.43c0.011,1.054 0.294,2.087 0.82,3c0.125,0.107 0.285,0.164 0.45,0.16c0.165,0.001 0.326,0.053 0.46,0.15c0.909,0.405 1.93,0.483 2.89,0.22c1.046,-0.275 2.039,-0.721 2.94,-1.32c0.441,-0.284 0.898,-0.541 1.37,-0.77c0.493,-0.271 0.947,-0.607 1.35,-1c0.668,-0.703 1.372,-1.371 2.11,-2c0.74,-0.661 1.38,-1.425 1.9,-2.27c0.19,-0.25 0.54,-0.75 1,-1.52c0.353,-0.503 0.664,-1.035 0.93,-1.59l0.29,-0.27c0,-0.07 0.14,-0.14 0.44,-0.21c0.3,-0.07 0.45,-0.06 0.45,0l0.42,0.52c0.188,0.688 0.051,1.425 -0.37,2c-0.46,0.89 -0.82,1.54 -1.07,1.94c-1.262,2.291 -2.96,4.313 -5,5.95c-1.696,1.44 -3.67,2.516 -5.8,3.16c-0.302,0.084 -0.599,0.184 -0.89,0.3c-0.41,0.13 -0.67,0.16 -0.84,0.06Z" style="fill:#f8f2e1;fill-rule:nonzero;"/><path d="M542.11,359.53c0.416,-0.359 0.854,-0.693 1.31,-1c0.464,-0.337 0.899,-0.711 1.3,-1.12c1.514,-1.382 2.944,-2.855 4.28,-4.41c0.182,-0.311 0.427,-0.58 0.72,-0.79c0.29,-0.213 0.535,-0.481 0.72,-0.79l0.75,-1.05c0.12,-0.29 0.22,-0.45 0.28,-0.46c0.06,-0.01 0.19,-0.24 0.38,-0.67l0,-0.24c0,-0.06 0.13,-0.12 0.39,-0.17c0.134,-0.154 0.339,-0.226 0.54,-0.19c0.216,0.013 0.419,0.106 0.57,0.26c0.135,0.145 0.24,0.315 0.31,0.5c0.075,0.206 0.049,0.436 -0.07,0.62c-0.05,0.42 -0.07,0.6 -0.08,0.53c-0.01,-0.07 -0.13,0.09 -0.38,0.47c-0.068,0.255 -0.176,0.498 -0.32,0.72c-0.224,0.32 -0.428,0.654 -0.61,1l-1.79,2.26c-0.51,0.63 -1.17,1.4 -2,2.3c-0.331,0.41 -0.703,0.785 -1.11,1.12c-0.422,0.36 -0.823,0.744 -1.2,1.15c-0.585,0.524 -1.199,1.015 -1.84,1.47c-0.615,0.459 -1.288,0.835 -2,1.12c-0.368,0.209 -0.766,0.36 -1.18,0.45c-0.373,0.069 -0.739,0.176 -1.09,0.32c-1.109,0.287 -2.268,0.317 -3.39,0.09c-0.987,-0.149 -1.944,-0.46 -2.83,-0.92c-0.62,-0.55 -1.2,-1.08 -1.76,-1.61c-0.571,-0.555 -1.065,-1.184 -1.47,-1.87c-0.605,-0.926 -1.02,-1.963 -1.22,-3.05c-0.225,-1.064 -0.368,-2.144 -0.43,-3.23c0.047,-0.267 0.001,-0.542 -0.13,-0.78c-0.141,-0.313 -0.189,-0.66 -0.14,-1c0.061,-0.354 0.061,-0.716 0,-1.07c0.06,-0.08 0.06,-0.15 0,-0.2c-0.025,-0.03 -0.061,-0.047 -0.1,-0.047c-0.039,0 -0.075,0.017 -0.1,0.047c-0.369,0.214 -0.706,0.48 -1,0.79l-0.82,0.85c-0.893,0.94 -1.733,1.91 -2.52,2.91c-0.815,1.031 -1.554,2.121 -2.21,3.26c-0.555,0.726 -1.057,1.491 -1.5,2.29c-0.167,0.32 -0.305,0.655 -0.41,1c-0.15,0.41 -0.3,0.85 -0.45,1.33c-0.15,0.48 -0.29,0.95 -0.44,1.43c-0.104,0.386 -0.273,0.751 -0.5,1.08c-0.129,0.244 -0.291,0.469 -0.48,0.67c-0.18,0.22 -0.37,0.45 -0.56,0.7c-0.212,0.282 -0.53,0.467 -0.88,0.51c-0.26,0.05 -0.33,0 -0.2,-0.06c0.13,-0.06 0.12,-0.2 0,-0.3l-1.33,-0.62c-0.337,-0.304 -0.397,-0.816 -0.14,-1.19c-0.102,-0.306 -0.095,-0.638 0.02,-0.94c0.276,-0.619 0.484,-1.266 0.62,-1.93c0.17,-0.76 0.32,-1.54 0.45,-2.35c0.13,-0.81 0.29,-1.6 0.46,-2.35c0.146,-0.683 0.35,-1.352 0.61,-2c0.12,-0.4 0.24,-0.8 0.35,-1.2c0.091,-0.268 0.165,-0.542 0.22,-0.82c0.08,-0.39 0.17,-0.8 0.25,-1.23c0.08,-0.43 0.16,-0.82 0.25,-1.18c0.09,-0.36 0.16,-0.65 0.21,-0.87c-0.08,-0.39 0.18,-0.72 0.76,-1c0.733,-0.354 1.597,-0.32 2.3,0.09c0.07,0.06 0.09,0.23 0.07,0.54c-0.02,0.31 -0.06,0.67 -0.11,1.05c-0.05,0.38 -0.09,0.74 -0.11,1.05c-0.02,0.31 0,0.49 0.08,0.55c0.08,0.06 0.27,0.17 0.39,0c0.45,-0.51 0.92,-1.1 1.43,-1.76c0.438,-0.582 0.916,-1.133 1.43,-1.65c0.46,-0.414 0.983,-0.752 1.55,-1c0.52,-0.22 1,-0.42 1.57,-0.61l0.5,-0.11c0.927,0.006 1.834,0.269 2.62,0.76c0.27,0.07 0.48,0.37 0.63,0.88c0.143,0.409 0.259,0.826 0.35,1.25c0.082,0.398 0.099,0.807 0.05,1.21c0.021,0.364 0.004,0.729 -0.05,1.09c-0.055,0.42 -0.038,0.846 0.05,1.26l0,0.71c-0.058,0.683 0.052,1.369 0.32,2c0.268,0.582 0.479,1.188 0.63,1.81c0.14,0.24 0.28,0.5 0.43,0.77c0.101,0.24 0.286,0.435 0.52,0.55l0.73,0.92c0.231,0.28 0.512,0.514 0.83,0.69c0.953,0.744 2.197,1.01 3.37,0.72c1.189,-0.221 2.326,-0.666 3.35,-1.31Z" style="fill:#f8f2e1;fill-rule:nonzero;"/><path d="M562.27,359c-0.368,0.059 -0.742,0.059 -1.11,0c-0.463,-0.087 -0.93,-0.15 -1.4,-0.19c-0.798,-0.272 -1.555,-0.653 -2.25,-1.13c-0.627,-0.591 -1.074,-1.346 -1.29,-2.18c-0.577,-1.131 -0.767,-2.421 -0.54,-3.67c0.25,-1.12 0.51,-2.25 0.76,-3.37c0.31,-0.66 0.61,-1.35 0.92,-2.08c0.279,-0.652 0.52,-1.32 0.72,-2c0.06,0 0.06,0 0,-0.1c-0.06,-0.1 -0.07,-0.12 0,-0.2c0.083,-0.162 0.221,-0.29 0.39,-0.36c0.146,-0.09 0.323,-0.119 0.49,-0.08l0.71,0.25c0.212,0.074 0.419,0.161 0.62,0.26c0.06,0.06 0.1,0.11 0.1,0.14c0,0.03 0.07,0.08 0.21,0.12c0.339,0.243 0.584,0.597 0.69,1c0,0.489 -0.139,0.967 -0.4,1.38l-1.53,4.18c-0.17,0.64 -0.33,1.27 -0.47,1.9c-0.155,0.597 -0.155,1.223 0,1.82c0,0.016 -0.001,0.031 -0.001,0.047c0,0.916 0.754,1.67 1.67,1.67c0.051,0 0.101,-0.002 0.151,-0.007c1.013,0.015 2.023,-0.113 3,-0.38c1.047,-0.315 2.07,-0.706 3.06,-1.17c1.12,-0.51 2.21,-1.08 3.29,-1.7c1.08,-0.62 2.08,-1.27 3,-1.94c0.832,-0.58 1.627,-1.211 2.38,-1.89c0.39,-0.37 0.61,-0.59 0.67,-0.66c0.051,-0.061 0.122,-0.103 0.2,-0.12c0.07,0 0.16,-0.07 0.29,-0.18c0.13,-0.11 0.46,-0.38 1,-0.83c0.275,-0.289 0.565,-0.563 0.87,-0.82c0.31,-0.255 0.604,-0.529 0.88,-0.82c0.329,-0.207 0.637,-0.444 0.92,-0.71c0.35,-0.33 0.71,-0.63 1.07,-0.92c0.289,-0.256 0.63,-0.447 1,-0.56c0.282,-0.088 0.591,0.018 0.76,0.26c0.16,0.32 0.137,0.702 -0.06,1c-0.183,0.331 -0.164,0.738 0.05,1.05l-0.18,0.62c-0.066,0.267 -0.24,0.495 -0.48,0.63c-0.259,0.094 -0.523,0.174 -0.79,0.24l-1.26,1.18c-0.418,0.398 -0.802,0.829 -1.15,1.29c-0.65,0.59 -1.17,1 -1.56,1.33c-0.39,0.33 -0.73,0.58 -1,0.84c-0.291,0.262 -0.599,0.506 -0.92,0.73c-0.32,0.23 -0.72,0.54 -1.17,0.92c0,0.07 -0.16,0.15 -0.49,0.24c-0.213,0.045 -0.413,0.133 -0.59,0.26c-0.401,0.548 -0.934,0.985 -1.55,1.27c-0.807,0.384 -1.595,0.807 -2.36,1.27c-1,0.39 -2.11,0.86 -3.4,1.43c-1.238,0.527 -2.575,0.78 -3.92,0.74Zm0,-23c-0.163,-0.069 -0.335,-0.116 -0.51,-0.14c-0.11,-0.032 -0.212,-0.087 -0.3,-0.16l-0.31,-0.26c-0.363,-0.513 -0.497,-1.154 -0.37,-1.77l0.33,-1.67c0.133,-0.614 0.381,-1.198 0.73,-1.72c0,-0.33 0.05,-0.45 0.19,-0.33c0.298,-0.216 0.639,-0.366 1,-0.44c0.647,0.14 1.247,0.447 1.74,0.89c0.34,0.16 0.5,0.36 0.47,0.6c-0.03,0.24 -0.06,0.53 -0.11,0.88c0.001,0.126 -0.03,0.25 -0.09,0.36c-0.06,0.11 -0.12,0.24 -0.18,0.38c-0.469,0.634 -0.846,1.331 -1.12,2.07c0.2,0.11 0.17,0.21 -0.09,0.31c-0.259,0.559 -0.797,0.94 -1.41,1l0.03,0Z" style="fill:#f8f2e1;fill-rule:nonzero;"/><path d="M589.59,357.5c-0.74,-0.12 -1.5,-0.21 -2.27,-0.29c-0.731,-0.048 -1.43,-0.32 -2,-0.78c-0.78,-0.711 -1.503,-1.484 -2.16,-2.31c-0.661,-0.802 -0.974,-1.836 -0.87,-2.87c0,-0.13 0,-0.42 0,-0.85c-0.021,-0.306 0.057,-0.611 0.22,-0.87l0.17,-0.62c0.31,-0.82 0.52,-1.36 0.64,-1.64c0.12,-0.28 0.41,-0.79 0.84,-1.55c1.128,-1.886 2.557,-3.575 4.23,-5c0.547,-0.508 1.136,-0.97 1.76,-1.38c0.69,-0.469 1.412,-0.89 2.16,-1.26c0.288,-0.03 0.563,-0.134 0.8,-0.3c0.546,-0.189 1.147,-0.146 1.66,0.12c0.513,0.234 0.986,0.548 1.4,0.93l0.44,1c0.344,1.378 -0.032,2.84 -1,3.88c-0.71,0.85 -1.46,1.67 -2.27,2.47c-0.81,0.8 -1.67,1.57 -2.57,2.32c-0.165,0.152 -0.346,0.286 -0.54,0.4c-0.195,0.115 -0.377,0.253 -0.54,0.41c-0.195,0.207 -0.457,0.338 -0.74,0.37c-0.3,0 -0.62,0.1 -0.95,0.17c-0.17,0.123 -0.375,0.189 -0.585,0.189c-0.336,0 -0.65,-0.169 -0.835,-0.449l-0.41,-0.29l-0.17,0c-0.07,0 -0.1,0 -0.1,0.11c-0.319,0.48 -0.489,1.044 -0.49,1.62c0,0.61 0,1.14 0,1.61c0.142,0.422 0.398,0.796 0.74,1.08c0.267,0.309 0.612,0.541 1,0.67c0.341,0.117 0.7,0.175 1.06,0.17c0.367,0.06 0.739,0.084 1.11,0.07c0.58,-0.082 1.164,-0.125 1.75,-0.13c0.687,-0.01 1.367,-0.153 2,-0.42c2.269,-0.534 4.497,-1.226 6.67,-2.07c2,-0.787 4.023,-1.563 6.07,-2.33c1.06,-0.45 2,-0.88 2.93,-1.28c0.93,-0.4 1.81,-0.8 2.74,-1.15c0.6,-0.26 1,-0.43 1.1,-0.51l1.19,-0.69c0.32,-0.28 0.5,-0.4 0.54,-0.37c0.292,0.015 0.584,-0.026 0.86,-0.12c0.12,-0.12 0.18,-0.12 0.15,0c-0.024,0.154 0.001,0.311 0.07,0.45c0.07,0.28 0.17,0.61 0.29,1c0.12,0.39 0,0.64 -0.22,0.8c-0.46,0.4 -0.66,0.62 -0.59,0.66c0.07,0.04 -0.12,0.23 -0.58,0.56c-0.961,0.577 -1.964,1.082 -3,1.51c-1,0.42 -2,0.91 -3.08,1.47c-0.73,0.26 -1.41,0.54 -2,0.82c-0.59,0.28 -1.24,0.54 -1.84,0.76c-1.33,0.44 -2.68,0.92 -4,1.43c-1.377,0.516 -2.791,0.928 -4.23,1.23c-1,0.25 -1.93,0.51 -2.89,0.78c-0.555,0.169 -1.124,0.289 -1.7,0.36c-0.55,0.07 -1.15,0.1 -1.96,0.11Zm-1.73,-10.7c1.122,-0.71 2.168,-1.534 3.12,-2.46c0.998,-0.97 1.93,-2.005 2.79,-3.1c-0.069,0.003 -0.137,0.02 -0.2,0.05c-0.063,0.014 -0.127,0.014 -0.19,0c-1.161,0.464 -2.241,1.109 -3.2,1.91c-0.881,0.776 -1.566,1.749 -2,2.84c-0.12,0.05 -0.18,0.29 -0.32,0.76Z" style="fill:#f8f2e1;fill-rule:nonzero;"/><path d="M616.56,362.56c-0.15,-0.42 -0.13,-0.71 0.06,-0.88c0.126,-0.318 0.184,-0.658 0.17,-1c0,-0.36 0,-0.75 0,-1.14c-0.081,-0.474 -0.047,-0.962 0.1,-1.42c0.154,-0.484 0.251,-0.984 0.29,-1.49c-0.016,-0.426 0.038,-0.852 0.16,-1.26c0.12,-0.38 0.23,-0.82 0.35,-1.33l0.21,-2.24c0.241,-0.59 0.406,-1.208 0.49,-1.84c0.091,-0.665 0.252,-1.319 0.48,-1.95l0,-0.2c0.12,-0.3 0.38,-1.08 0.77,-2.33c0.39,-1.25 0.81,-2.57 1.26,-4c0.45,-1.43 0.88,-2.64 1.28,-3.74c0.19,-0.592 0.42,-1.17 0.69,-1.73c0.232,-0.618 0.429,-1.249 0.59,-1.89c0.16,-0.644 0.391,-1.268 0.69,-1.86c0.066,-0.352 0.191,-0.69 0.37,-1c0.186,-0.345 0.34,-0.707 0.46,-1.08c0.365,-0.579 0.651,-1.205 0.85,-1.86c0.175,-0.624 0.423,-1.225 0.74,-1.79c0.14,0 0.2,-0.08 0.2,-0.15c0.373,-1.02 0.707,-2.02 1,-3c0.343,-0.968 0.768,-1.905 1.27,-2.8c0.38,-0.81 0.74,-1.62 1.08,-2.4c0.364,-0.854 0.656,-1.737 0.87,-2.64c0.06,-0.28 0.11,-0.55 0.17,-0.83c-0.013,-0.174 0.015,-0.348 0.08,-0.51c0.064,-0.212 0.064,-0.438 0,-0.65c0,-0.32 0.32,-0.49 1,-0.48c0.563,0.104 1.097,0.333 1.56,0.67c0.49,0.34 0.94,0.68 1.37,1c0.134,0.168 0.245,0.353 0.33,0.55c0.073,0.169 0.037,0.367 -0.09,0.5c-0.341,1.147 -0.758,2.269 -1.25,3.36c-0.46,1.06 -0.95,2.2 -1.44,3.42c-0.73,1.58 -1.45,3.16 -2.17,4.76c-0.056,0.098 -0.087,0.208 -0.09,0.32c0,0.09 -0.06,0.19 -0.19,0.29c-0.25,0.58 -0.47,1.13 -0.65,1.63c-0.197,0.533 -0.451,1.043 -0.76,1.52c-0.433,0.8 -0.769,1.65 -1,2.53c-0.242,0.896 -0.619,1.749 -1.12,2.53c-0.114,0.417 -0.268,0.822 -0.46,1.21c-0.204,0.421 -0.359,0.864 -0.46,1.32c-0.13,0.3 -0.32,0.83 -0.6,1.59c-0.28,0.76 -0.56,1.62 -0.86,2.61l-0.9,3c-0.31,1 -0.54,1.82 -0.72,2.51c-0.12,0.44 -0.25,0.9 -0.4,1.4c-0.144,0.463 -0.244,0.938 -0.3,1.42c-0.12,0.57 -0.21,1.11 -0.29,1.62c-0.085,0.517 -0.254,1.017 -0.5,1.48c-0.23,1.08 -0.43,2 -0.6,2.9c-0.167,0.823 -0.201,1.667 -0.1,2.5c0.019,0.587 -0.028,1.174 -0.14,1.75c-0.101,0.619 -0.101,1.251 0,1.87c0.074,0.158 0.074,0.342 0,0.5c-0.072,0.148 -0.132,0.302 -0.18,0.46c-0.126,0.57 -0.126,1.16 0,1.73c0.123,0.654 0.3,1.296 0.53,1.92l0.21,0.23c0.004,0.117 0.046,0.229 0.12,0.32c0.07,0.08 0.14,0.09 0.2,0c0.292,-0.148 0.65,-0.082 0.87,0.16c0.229,0.201 0.355,0.496 0.34,0.8c-0.034,0.311 -0.212,0.589 -0.48,0.75c-0.49,0.232 -1.05,0.275 -1.57,0.12c-0.848,-0.148 -1.619,-0.587 -2.18,-1.24c-0.452,-0.319 -0.8,-0.764 -1,-1.28c-0.16,-0.45 -0.31,-1 -0.47,-1.5c0.12,-0.638 0.12,-1.292 0,-1.93c-0.123,-0.597 -0.204,-1.202 -0.24,-1.81Z" style="fill:#f8f2e1;fill-rule:nonzero;"/></svg>