<?xml version="1.0" encoding="UTF-8" standalone="no"?><!DOCTYPE svg PUBLIC "-//W3C//DTD SVG 1.1//EN" "http://www.w3.org/Graphics/SVG/1.1/DTD/svg11.dtd"><svg width="100%" height="100%" viewBox="0 0 1258 806" version="1.1" xmlns="http://www.w3.org/2000/svg" xmlns:xlink="http://www.w3.org/1999/xlink" xml:space="preserve" xmlns:serif="http://www.serif.com/" style="fill-rule:evenodd;clip-rule:evenodd;stroke-linejoin:round;stroke-miterlimit:1.41421;"><rect x="1.54" y="0" width="1259.69" height="809.22" style="fill:#f8f2e1;"/><path d="M656.27,462.2l12.59,0c0.002,0 0.004,0 0.006,0c2.458,0 4.48,2.022 4.48,4.48c0,0.214 -0.015,0.428 -0.046,0.64l-2.85,19.85c-0.322,2.196 -2.23,3.839 -4.45,3.83l-46.34,0c-2.461,-0.003 -4.484,-2.029 -4.484,-4.49c0,-0.211 0.014,-0.421 0.044,-0.63l16.89,-126.09c0.308,-2.204 2.214,-3.862 4.44,-3.86l21.45,0c2.46,0.004 4.483,2.029 4.483,4.49c0,0.207 -0.014,0.415 -0.043,0.62l-10.57,96c-0.039,0.238 -0.059,0.479 -0.059,0.72c0,2.436 2.005,4.44 4.44,4.44c0.006,0 0.013,0 0.019,0Z" style="fill:#ef4a41;fill-rule:nonzero;"/><path d="M708.21,469.25l12.59,0c2.456,0.002 4.476,2.024 4.476,4.48c0,0.214 -0.015,0.428 -0.046,0.64l-2.84,19.85c-0.317,2.198 -2.219,3.848 -4.44,3.85l-46.35,0c-0.002,0 -0.003,0 -0.005,0c-2.457,0 -4.48,-2.022 -4.48,-4.48c0,-0.211 0.015,-0.421 0.045,-0.63l16.84,-126.09c0.316,-2.2 2.217,-3.853 4.44,-3.86l21.56,0c2.46,0.004 4.483,2.029 4.483,4.49c0,0.207 -0.014,0.415 -0.043,0.62l-10.57,96c-0.036,0.228 -0.054,0.459 -0.054,0.69c0,2.419 1.976,4.415 4.394,4.44Z" style="fill:#ef4a41;fill-rule:nonzero;"/><path d="M630.27,510l-8.85,16.47l-7.91,0.4c-0.843,-0.103 -1.681,0.247 -2.2,0.92c-0.09,0.135 -0.168,0.28 -0.23,0.43c-0.141,0.376 -0.225,0.77 -0.25,1.17l4.58,-0.16l4.61,-0.15l-0.21,0.4l-0.74,1.38l-7.91,0.4c-0.846,-0.105 -1.688,0.246 -2.21,0.92c-0.09,0.135 -0.168,0.28 -0.23,0.43c-0.137,0.376 -0.218,0.77 -0.24,1.17l4.57,-0.16l4.62,-0.15l-1,1.78l-7.91,0.4c-0.846,-0.103 -1.687,0.247 -2.21,0.92c-0.087,0.136 -0.161,0.28 -0.22,0.43c-0.141,0.376 -0.225,0.77 -0.25,1.17l4.57,-0.16l4.62,-0.15l-1.06,2c-0.315,0.592 -0.163,1.331 0.36,1.75c0.064,0.07 0.138,0.131 0.22,0.18c0.057,0.029 0.117,0.049 0.18,0.06c0.658,0.261 1.416,-0.016 1.75,-0.64l1.07,-2c0.62,1 1.21,2 1.81,3l3,4.88c0.319,-0.239 0.599,-0.526 0.83,-0.85c0.097,-0.133 0.178,-0.277 0.24,-0.43c0.269,-0.804 0.098,-1.693 -0.45,-2.34l-4,-6.82l1,-1.78l1.81,2.95l3,4.88c0.319,-0.239 0.599,-0.526 0.83,-0.85c0.098,-0.131 0.175,-0.276 0.23,-0.43c0.273,-0.804 0.101,-1.695 -0.45,-2.34l-4,-6.82l0.74,-1.37l0.21,-0.41l1.82,2.95l3,4.88c0.321,-0.24 0.604,-0.526 0.84,-0.85c0.088,-0.133 0.165,-0.274 0.23,-0.42c0.268,-0.807 0.098,-1.699 -0.45,-2.35l-4,-6.82l8.85,-16.47c0.367,-0.689 0.106,-1.558 -0.58,-1.93c-0.23,-0.147 -0.497,-0.225 -0.77,-0.225c-0.526,0 -1.011,0.291 -1.26,0.755Z" style="fill:#ef4a41;fill-rule:nonzero;"/><path d="M722.88,326.11l6.29,-0.23l-0.06,0.11l-5.72,10.64l-7.12,13.26c-0.367,0.694 -0.101,1.567 0.59,1.94c0.691,0.366 1.561,0.1 1.93,-0.59l7.12,-13.24l5.72,-10.64l0.06,-0.11l3.11,5.08c0.05,0.1 0.11,0.19 0.17,0.29c0.69,-6.23 1.33,-12 2,-18.07l-0.07,0l-0.08,0l-13.94,11.56Z" style="fill:#ef4a41;fill-rule:nonzero;"/></svg>